<svg xmlns="http://www.w3.org/2000/svg" width="349.132" height="88.625" viewBox="0 0 349.132 88.625">
  <defs>
    <style>
      .cls-1 {
        fill: #49b2b2;
      }
    </style>
  </defs>
  <g id="グループ_43" data-name="グループ 43" transform="translate(-96.644 -65.335)">
    <path id="パス_8" data-name="パス 8" class="cls-1" d="M24.948-28.776c.132-1.32.308-2.9.352-4.84,0-2.9-.88-3.784-3.784-3.784-3.124,0-3.168,1.98-3.256,5.544a39.92,39.92,0,0,1-2.816,14.432C13.156-12.012,8.844-6.732,4.708-4.356c-2.244,1.32-2.86,2.068-2.86,3.344,0,2.2,1.76,4.268,3.564,4.268,1.1,0,2.156-.484,3.784-1.672a38.171,38.171,0,0,0,13.156-17.6C24.948-9.24,27.9-4.84,32.824-.44,35.288,1.8,37.268,2.9,38.764,2.9c1.8,0,3.652-2.068,3.652-4.092,0-1.232-1.8-2.552-3.7-3.96a34.87,34.87,0,0,1-8.492-9.68C27.192-20.064,24.948-27.72,24.948-28.776Zm50.6.66c1.232,0,1.452.22,1.452,1.452V-6.776c0,1.232-.22,1.452-1.452,1.452H56.364c-1.232,0-1.452-.22-1.452-1.452V-26.664c0-1.232.22-1.452,1.452-1.452ZM48.048-3.652c0,3.96.88,4.84,4.84,4.84h26.18c3.96,0,4.84-.88,4.84-4.84V-29.744c0-3.96-.88-4.84-4.84-4.84H52.888c-3.96,0-4.84.88-4.84,4.84ZM116.2-15.488v3.7h-3.916v-3.7ZM100.628-34.936c0-1.584-1.1-2.464-3.124-2.464-1.98,0-3.08.88-3.08,2.464v4.928H91.74c-1.584,0-2.508,1.1-2.508,3.08,0,2.024.88,3.124,2.508,3.124h2.684v7.612c-.528.176-1.408.44-2.2.7-2.376.748-2.992,1.364-2.992,2.948,0,2.112,1.144,3.784,2.64,3.784a9.264,9.264,0,0,0,2.552-.528V-3.96c0,1.188-.22,1.452-1.188,1.452-.4,0-.968-.044-1.364-.044-1.276,0-2.112,1.1-2.112,2.9,0,2.508,1.012,3.256,4.312,3.256,4.972,0,6.556-1.232,6.556-5.236v-10.3c3.3-1.672,3.916-2.244,3.916-3.784,0-2.156-1.1-3.74-2.64-3.74a2.461,2.461,0,0,0-1.276.308V-23.8c1.364,0,1.716,0,2.288-.4-.176,1.364,1.232,3.124,3.212,3.388V-2.156c0,4,.748,4.752,4.752,4.752h17.468c1.452,0,2.288-1.056,2.288-2.9s-.836-2.86-2.288-2.86h-5.984V-6.732h3.652c1.276,0,2.024-.924,2.024-2.552,0-1.584-.748-2.508-2.024-2.508h-3.652v-3.7h3.608c1.32,0,2.068-.924,2.068-2.6,0-1.628-.748-2.552-2.068-2.552h-3.608v-3.08h5.588c1.5,0,2.288-1.012,2.288-2.86s-.836-2.9-2.288-2.9h-3.96a16.878,16.878,0,0,0,1.672-4.972c0-1.452-1.672-2.6-3.872-2.6-1.848,0-2.068.748-3.256,4.136a34.673,34.673,0,0,1-1.364,3.432H113.3c1.276-2.6,1.98-4.4,1.98-5.236,0-1.54-1.8-2.816-3.872-2.816-1.5,0-1.936.528-3.036,3.652a25.289,25.289,0,0,1-4.444,7.7,4.026,4.026,0,0,0,.044-.748c0-3.08-1.76-3.08-3.344-3.08Zm15.576,14.3h-3.916v-3.08H116.2Zm0,13.9v3.564h-3.168c-.572,0-.748-.176-.748-.748V-6.732Zm44.66-4.664h5.94a13.724,13.724,0,0,1-2.992,3.652c-1.848-1.408-2.508-1.672-3.256-1.672-1.584,0-3.476,1.54-3.476,2.86a2.672,2.672,0,0,0,1.32,2.112,23.531,23.531,0,0,1-5.984,1.672c-1.8.22-3.784.44-3.784,3.256a3.138,3.138,0,0,0,3.124,3.344,25.629,25.629,0,0,0,7.392-1.848c10.428-3.872,15.444-12.1,15.444-15.8,0-2.068-1.452-3.344-3.872-3.344h-5.368a2.416,2.416,0,0,0-2.024-2.024C168.08-22,173.844-27.72,173.844-31.372c0-1.98-1.54-3.212-4-3.212h-7.3a3.156,3.156,0,0,0-3.3-3.212c-1.32,0-1.98.4-3.476,2.156a17.842,17.842,0,0,1-4.664,4c-2.156,1.276-2.816,2.024-2.816,3.256a3.434,3.434,0,0,0,3.168,3.476c1.144,0,1.452-.088,6.732-4.356h7.3a9.784,9.784,0,0,1-3.212,3.432c-2.244-2.244-3.168-2.244-3.564-2.244-1.716,0-3.476,1.452-3.476,2.86,0,.836.308,1.32,1.584,2.464a19.647,19.647,0,0,1-4.312,1.1c-2.42.308-3.432,1.232-3.432,3.036,0,2.024,1.188,3.388,2.948,3.388a20.57,20.57,0,0,0,5.676-1.408,44.834,44.834,0,0,1-6.556,5.06,2.411,2.411,0,0,0-1.408,2.2,3.263,3.263,0,0,0,3.124,3.3c2.684,0,5.9-3.168,6.468-3.784ZM138.776,1.276c0,1.628,1.188,2.552,3.212,2.552,2.112,0,3.256-.924,3.256-2.552V-13.86c.66,2.6,1.012,3.564,2.376,3.564a2.536,2.536,0,0,0,2.64-2.244,11.009,11.009,0,0,0-1.54-4.136c-.748-1.364-1.232-1.76-2.112-1.76a2.2,2.2,0,0,0-1.364.44v-2.288h1.628c1.54,0,2.42-1.1,2.42-2.992,0-1.936-.88-3.036-2.42-3.036h-1.628V-30.1c3.7-1.056,4.356-1.584,4.356-3.476,0-2.068-1.056-3.564-2.552-3.564a3.745,3.745,0,0,0-1.144.22,34.135,34.135,0,0,1-8.492,1.98c-2.64.176-3.388.836-3.388,2.86s.968,3.388,2.464,3.388c.4,0,1.584-.176,2.288-.22v2.6H135.74c-1.54,0-2.42,1.1-2.42,3.036,0,1.892.88,2.992,2.42,2.992h2.6a13.6,13.6,0,0,1-.616,1.98,28.161,28.161,0,0,1-3.652,7.656,3.217,3.217,0,0,0-.88,2.156,3.315,3.315,0,0,0,3.3,3.256c.836,0,1.276-.264,2.288-1.408Zm65.956-25.388c.88,0,1.144.132,1.144.616a9.645,9.645,0,0,1-.44,1.98C202.092-9.5,192.764-5.368,186.868-3.256c-1.892.66-2.684,1.54-2.684,3.168a3.861,3.861,0,0,0,3.7,4.048c2.992,0,9.064-3.08,13.816-7A32.514,32.514,0,0,0,212.96-21.384a30.9,30.9,0,0,0,.88-5.456,5.225,5.225,0,0,0-.66-2.376,1.991,1.991,0,0,0,1.188-1.848c0-.7-.528-1.716-1.892-3.7-1.144-1.628-1.452-1.892-2.464-1.892a2.533,2.533,0,0,0-2.508,2.244c0,.44.132.7.66,1.452a23.853,23.853,0,0,1,1.452,2.2H197.648a6.978,6.978,0,0,0,.836-2.992c0-1.716-1.892-3.124-4.18-3.124a2.692,2.692,0,0,0-2.684,1.848c-.4.836-.792,1.76-1.188,2.6a32.867,32.867,0,0,1-7.348,10.384c-2.376,2.156-3.08,2.816-3.08,4.312a3.849,3.849,0,0,0,3.652,3.784c1.5,0,2.684-.792,5.1-3.388a45.217,45.217,0,0,0,5.28-6.776Zm15.224-8.712a9.42,9.42,0,0,0-1.848-3.872c-1.056-1.584-1.54-1.98-2.42-1.98a2.474,2.474,0,0,0-2.552,2.156,1.973,1.973,0,0,0,.528,1.32c.528.792,1.5,2.464,1.8,3.036.748,1.408,1.056,1.628,1.936,1.628A2.452,2.452,0,0,0,219.956-32.824Zm34.32,4.532c1.716,0,2.684-1.232,2.684-3.388s-.968-3.388-2.684-3.388H229.768c-1.716,0-2.684,1.232-2.684,3.388s.968,3.388,2.684,3.388Zm-28.6,3.828c-1.716,0-2.684,1.232-2.684,3.388,0,2.2.968,3.388,2.684,3.388h24.64c.924,0,1.188.132,1.188.528,0,.44-1.98,8.844-13.948,13.024-3.036,1.056-4.268,1.54-4.268,3.784,0,2.2,1.584,4.092,3.432,4.092,1.76,0,4.62-1.012,7.744-2.728,14.7-8.052,15.4-20.372,15.4-21.384,0-2.728-1.716-4.092-5.236-4.092Zm68.816-1.848c.7,0,.924.132.924.528,0,1.716-1.716,5.588-2.948,7.832-3.036,5.5-7.744,9.548-14.74,12.672C274.912-4,274.12-3.168,274.12-1.408a4.114,4.114,0,0,0,3.872,4.136c1.276,0,2.948-.616,5.192-1.8,19.624-10.6,20.592-28.908,20.592-30.1,0-2.9-1.54-4.224-4.928-4.224h-28.16c-1.8,0-2.816,1.276-2.816,3.52,0,2.288,1.012,3.564,2.816,3.564Z" transform="translate(142 150)"/>
    <path id="パス_9" data-name="パス 9" class="cls-1" d="M7.728-17.48v-.943c0-.782-.552-1.242-1.564-1.242-.989,0-1.541.46-1.541,1.242v.943H2.944c-.713,0-1.127.506-1.127,1.38,0,.9.414,1.4,1.127,1.4H4.623v1.886H1.794c-.736,0-1.15.506-1.15,1.449s.414,1.449,1.15,1.449h2.9A13.341,13.341,0,0,1,2.185-8.3C1.127-7.751.759-7.337.759-6.624A1.527,1.527,0,0,0,2.254-5.106,1.7,1.7,0,0,0,2.783-5.2V-.506c0,1.564.368,1.932,1.932,1.932h5.2c1.564,0,1.932-.368,1.932-1.932V-6.555c0-1.541-.368-1.932-1.932-1.932H7.751A13.006,13.006,0,0,0,9.269-9.913h2.07c.759,0,1.173-.506,1.173-1.449,0-.9-.322-1.334-1.081-1.449a16.814,16.814,0,0,0,1.38-2.99V.621c0,.828.575,1.311,1.633,1.311,1.035,0,1.633-.46,1.633-1.311V-15.364c0-.414.092-.506.483-.506h1.61c.3,0,.437.092.437.253A39.377,39.377,0,0,1,17.3-11.661c-.391.966-.437,1.081-.437,1.472,0,.46.046.552.667,1.311A7.1,7.1,0,0,1,18.86-4.922c0,.6-.161.8-.6.8-.161,0-.552-.046-.759-.046-.69,0-1.1.575-1.1,1.541,0,1.219.667,1.794,2.093,1.794a3.532,3.532,0,0,0,2.806-.9,4.177,4.177,0,0,0,.874-2.76,7.908,7.908,0,0,0-1.311-4.646c-.69-1.012-.759-1.127-.759-1.357a1.376,1.376,0,0,1,.161-.552,26.631,26.631,0,0,0,1.863-6.187c0-1.127-.6-1.656-1.886-1.656H15.019c-1.4,0-2.024.368-2.162,1.288a1.6,1.6,0,0,0-1.311-.621c-.713,0-.9.184-1.472,1.564a6.9,6.9,0,0,1-.391.874,1.312,1.312,0,0,0,.023-.3c0-.9-.391-1.4-1.1-1.4ZM5.888-4.738v-.713c0-.368.115-.483.506-.483H8.28c.391,0,.506.115.506.483v.713Zm2.9,2.99c0,.391-.115.506-.506.506H6.394c-.391,0-.506-.115-.506-.506V-2.53h2.9ZM7.728-14.7H8.6a.988.988,0,0,0,.575-.161,13.007,13.007,0,0,1-1.449,2.047ZM40.687-7.59H34.776v-.943h5.911Zm-9.062-9.683c-.736,0-1.15.506-1.15,1.426,0,.943.414,1.449,1.15,1.449h3.933a6.549,6.549,0,0,1-.276.874H33.764c-1.7,0-2.139.437-2.139,2.139v6.808c0,1.7.437,2.139,2.139,2.139h7.981c1.7,0,2.139-.437,2.139-2.139v-6.808c0-1.7-.437-2.139-2.139-2.139H38.87c.115-.322.184-.552.276-.874h4.968c.759,0,1.15-.506,1.15-1.449,0-.92-.391-1.426-1.15-1.426H42.55a9.426,9.426,0,0,0,.253-.92c0-.828-1.4-1.242-2.231-1.242-.69,0-.92.23-1.288,1.334a8.922,8.922,0,0,1-.345.828H36.294a1.148,1.148,0,0,0,.161-.483c0-.391-.782-1.794-1.794-1.794-.9,0-1.932.805-1.932,1.518a1.1,1.1,0,0,0,.368.759Zm8.556,6.095c.506,0,.506.092.506.92H34.776c0-.828,0-.92.506-.92Zm-4.9,6.233c-.506,0-.506-.092-.506-.92h5.911c0,.828,0,.92-.506.92ZM29.854-9.131c0-1.7-.437-2.139-2.139-2.139H25.047c-.828,0-1.265.575-1.265,1.587S24.242-8.1,25.047-8.1h.966c.391,0,.483.115.483.506v4.117a12.562,12.562,0,0,1-1.863,1.748c-.989.759-1.081.874-1.081,1.518a1.992,1.992,0,0,0,1.84,2c.736,0,1.7-.713,3.243-2.438,1.84,1.886,4.209,2.3,11.684,2.3,4.508,0,4.991-.207,4.991-1.679,0-1.265-.437-1.771-1.541-1.771-.368,0-.989.023-1.725.069-.943.069-2.185.069-3.289.069-4.945,0-7.153-.161-8.9-2.093ZM30.2-15.18c0-.736-.506-1.5-1.886-2.806-1.035-1.012-1.242-1.15-1.725-1.15a2.214,2.214,0,0,0-2.07,1.886,1.2,1.2,0,0,0,.391.851c.345.345,1.633,1.679,2.185,2.346.529.621.69.69,1.15.69A2.178,2.178,0,0,0,30.2-15.18ZM53.245.621c0,.828.575,1.288,1.61,1.288,1.012,0,1.587-.46,1.587-1.288V-9.913c1.035-2.53,1.15-2.806,1.15-3.059,0-.69-.989-1.38-2-1.38-1.035,0-1.288.782-1.564,1.7A17.032,17.032,0,0,1,51.566-8.3c.046-.621.092-1.472.092-2.323v-3.243c0-.6.115-.759.6-.759H66.723c.782,0,1.242-.552,1.242-1.518,0-.989-.46-1.541-1.242-1.541H59.846c0-.759,0-1.771-1.748-1.771s-1.748,1.012-1.748,1.771H51.313c-1.817,0-3.013,0-3.013,2.392v3.956c0,6.417-.69,8.05-1.15,9.108a5.648,5.648,0,0,0-.713,2.024,1.73,1.73,0,0,0,1.84,1.564c.851,0,1.288-.322,1.725-1.334a18.4,18.4,0,0,0,1.449-5.612,1.525,1.525,0,0,0,1.2.6,1.245,1.245,0,0,0,.6-.138ZM66.378-12.995c0-.828-.575-1.288-1.61-1.288s-1.61.46-1.61,1.288v1.242H58.7c-.759,0-1.2.529-1.2,1.495s.437,1.495,1.2,1.495h4.462v6.877c0,.368-.138.552-.46.552-.391,0-1.173-.115-1.426-.115-.69,0-1.15.713-1.15,1.725,0,1.518.966,1.518,3.2,1.518,1.2,0,3.059,0,3.059-2.346V-8.763h.736c.759,0,1.2-.529,1.2-1.495s-.437-1.495-1.2-1.495h-.736Zm-4,8.855a8.413,8.413,0,0,0-1.288-2.691,1.8,1.8,0,0,0-1.426-1.081A1.842,1.842,0,0,0,57.73-6.371c0,.391.161.736.9,1.84.253.368.46.736.667,1.081.368.713.644.92,1.173.92A1.924,1.924,0,0,0,62.376-4.14Zm23.713-8.809H78.706v-.828h7.383ZM75.532-9.959c0,1.656.506,2.162,2.162,2.162h9.43c1.656,0,2.162-.506,2.162-2.162v-6.785c0-1.656-.506-2.162-2.162-2.162h-9.43c-1.656,0-2.162.506-2.162,2.162Zm3.174-5.658c0-.69,0-.828.391-.828h6.6c.391,0,.391.138.391.828Zm.391,5.336c-.391,0-.391-.138-.391-.851h7.383c0,.713,0,.851-.391.851ZM89.539-4.117c.759,0,1.15-.506,1.15-1.449,0-.92-.391-1.426-1.15-1.426H74.957c-.713,0-.805-.069-.805-.69v-7.153c0-.851-.575-1.311-1.656-1.311-1.035,0-1.633.46-1.633,1.311v8.1c0,2.162.46,2.622,2.53,2.622h5.52V.736c0,.851.6,1.334,1.679,1.334,1.058,0,1.656-.483,1.656-1.334V-4.117Zm-14.191.3c-.46,0-.644.115-1.334.667A14.655,14.655,0,0,1,71.53-1.61c-1.219.552-1.426.759-1.426,1.4A1.853,1.853,0,0,0,71.622,1.7c.644,0,1.679-.46,3.381-1.541C76.613-.851,77.1-1.334,77.1-1.978A1.9,1.9,0,0,0,75.348-3.818Zm9.936,0A1.942,1.942,0,0,0,83.628-1.84c0,.667.391,1.012,2.208,2.024C87.906,1.311,88.78,1.7,89.286,1.7a1.932,1.932,0,0,0,1.633-2c0-.644-.207-.851-1.5-1.4a20.812,20.812,0,0,1-2.576-1.38C85.951-3.68,85.7-3.818,85.284-3.818Zm17-6.486c1.679,0,2.139-.46,2.139-2.139v-4.163c0-1.679-.46-2.139-2.139-2.139H95.887c-1.679,0-2.139.46-2.139,2.139v4.416c0,.989.138,2.07,1.909,1.886-.23,4.692-.782,6.624-2.438,8.6-.644.782-.805,1.081-.805,1.564A2.045,2.045,0,0,0,94.323,1.7c.667,0,1.38-.345,2.277-1.84A15.46,15.46,0,0,0,98.578-5.98h2.07c.46,0,.529.069.529.46,0,.138-.115,1.863-.253,2.852-.115.966-.207,1.1-.69,1.1-.161,0-.92-.069-1.081-.069-.736,0-1.311.529-1.311,1.587,0,1.334.506,1.656,2.438,1.656,3.174,0,3.542-.621,3.933-5.152.138-1.61.184-2.346.184-3.105,0-1.84-.345-2.254-1.84-2.254h-3.68l.069-1.4ZM100.6-15.87c.368,0,.506.138.506.506v1.725c0,.345-.115.46-.46.46h-3.22c-.345,0-.46-.115-.46-.46V-15.41c0-.345.115-.46.46-.46Zm9.407,13.662c0,.483-.161.644-.644.644-.23,0-1.265-.069-1.518-.069-1.15,0-1.288,1.127-1.288,1.633,0,1.426.736,1.633,2.783,1.633,3.588,0,4-.874,4-3.7V-18.124c0-.851-.6-1.334-1.656-1.334-1.081,0-1.679.483-1.679,1.334Zm-4.646-2.507c0,.851.6,1.334,1.656,1.334,1.035,0,1.633-.483,1.633-1.334V-17.066c0-.828-.575-1.288-1.656-1.288-1.035,0-1.633.46-1.633,1.288Z" transform="translate(96 85)"/>
    <g id="グループ_41" data-name="グループ 41" transform="translate(98.356 94.32)">
      <path id="パス_6" data-name="パス 6" class="cls-1" d="M3.568,8.485q-.045,0-.092,0a1,1,0,0,1-.905-1.086l.68-7.485A1,1,0,0,1,4.338-1,1,1,0,0,1,5.243.091l-.68,7.485A1,1,0,0,1,3.568,8.485Z" transform="translate(88.417)"/>
      <path id="パス_5" data-name="パス 5" class="cls-1" d="M16.865,8.707a1,1,0,0,1-.631-.225L6.856.833A1,1,0,0,1,8.121-.717L17.5,6.932a1,1,0,0,1-.633,1.775Z" transform="translate(74.949 0.033)"/>
      <path id="線_13" data-name="線 13" class="cls-1" d="M24.95,1H0A1,1,0,0,1-1,0,1,1,0,0,1,0-1H24.95a1,1,0,0,1,1,1A1,1,0,0,1,24.95,1Z" transform="translate(92.665)"/>
      <path id="パス_7" data-name="パス 7" class="cls-1" d="M82.042,1.048h0L0,1A1,1,0,0,1-1,0,1,1,0,0,1,0-1l82.042.048a1,1,0,0,1,0,2Z" transform="translate(0)"/>
    </g>
  </g>
</svg>
